<?xml version="1.0" encoding="utf-8"?>
<!-- Generator: Adobe Illustrator 21.0.0, SVG Export Plug-In . SVG Version: 6.00 Build 0)  -->
<svg version="1.1" id="Слой_1" xmlns="http://www.w3.org/2000/svg" xmlns:xlink="http://www.w3.org/1999/xlink" x="0px" y="0px"
	 viewBox="0 0 307 307" style="enable-background:new 0 0 307 307;" xml:space="preserve">
<style type="text/css">
	.st0{fill:#5A61ED;}
</style>
<title>person</title>
<path class="st0" d="M153,63.5h-0.3c-23.8,0-43,19.3-43,43s19.3,43,43,43s43-19.3,43-43C195.8,82.8,176.7,63.6,153,63.5z
	 M153.7,129.2h-0.2c-12.2,0-22-9.8-22-22c0-12.1,9.8-22,22-22s22,9.9,22,22C175.6,119.3,165.8,129.2,153.7,129.2z M151.9,161.4
	c-48.4,1-87.6,36.7-94.2,82.6c0,0,0,0,0,0c6.2,6.6,13.1,12.5,20.5,17.7v-4.6c1.3-41.8,36.1-74.6,77.9-73.3
	c41.3,1.2,73.9,35.3,73.4,76.6v0.8c7.3-5.2,14.1-11.1,20.3-17.7l0,0v-0.1C242.3,195.4,200.5,160.4,151.9,161.4z M153,63.5h-0.3
	c-23.8,0-43,19.3-43,43s19.3,43,43,43s43-19.3,43-43C195.8,82.8,176.7,63.6,153,63.5z M153.7,129.2h-0.2c-12.2,0-22-9.8-22-22
	c0-12.1,9.8-22,22-22s22,9.9,22,22C175.6,119.3,165.8,129.2,153.7,129.2z M151.9,161.4c-48.4,1-87.6,36.7-94.2,82.6c0,0,0,0,0,0
	c6.2,6.6,13.1,12.5,20.5,17.7v-4.6c1.3-41.8,36.1-74.6,77.9-73.3c41.3,1.2,73.9,35.3,73.4,76.6v0.8c7.3-5.2,14.1-11.1,20.3-17.7l0,0
	v-0.1C242.3,195.4,200.5,160.4,151.9,161.4z M249.8,243.4L249.8,243.4L249.8,243.4L249.8,243.4C249.8,243.4,249.8,243.4,249.8,243.4
	z M153,63.5h-0.3c-23.8,0-43,19.3-43,43s19.3,43,43,43s43-19.3,43-43C195.8,82.8,176.7,63.6,153,63.5z M153.7,129.2h-0.2
	c-12.2,0-22-9.8-22-22c0-12.1,9.8-22,22-22s22,9.9,22,22C175.6,119.3,165.8,129.2,153.7,129.2z"/>
<path class="st0" d="M153.5,0C68.9,0,0,68.9,0,153.5S68.9,307,153.5,307c33,0,65.2-10.7,91.7-30.5c0,0,0.1-0.1,0.1-0.1
	c0.1-0.1,0.2-0.1,0.3-0.2c0.5-0.3,1-0.7,1.4-1c0,0,0,0,0.1,0c0.2-0.2,0.4-0.3,0.6-0.5c0,0,0.1-0.1,0.1-0.1
	c37.3-29.1,59.2-73.7,59.2-121.1C307,68.9,238.1,0,153.5,0z M250,243.2c-0.1,0.1-0.1,0.1-0.2,0.2v0l0,0
	c-6.1,6.6-12.9,12.5-20.3,17.7v-0.3c-0.1,0.1-0.2,0.1-0.3,0.2c0,0.1,0,0.2,0,0.3c-45.2,31.8-105.4,32-150.8,0.4v-0.1
	c0,0-0.1-0.1-0.1-0.1v0.2c-7.4-5.2-14.3-11.1-20.5-17.7c0,0,0,0,0,0c0,0,0-0.1-0.1-0.1c-23.1-24.4-36-56.8-36-90.4
	c0-72.7,59.2-131.8,131.8-131.8s131.8,59.2,131.8,131.8C285.4,186.8,272.7,218.8,250,243.2z"/>
<path class="st0" d="M245.6,276.2c-0.1,0.1-0.2,0.1-0.2,0.2c-0.1,0-0.2,0.1-0.2,0.1c0,0,0.1-0.1,0.1-0.1
	C245.4,276.4,245.5,276.3,245.6,276.2z"/>
<path class="st0" d="M250,243.2C250,243.2,250,243.2,250,243.2c-0.1,0.1-0.1,0.2-0.2,0.2v0l0,0c-6.1,6.6-12.9,12.5-20.3,17.7v-0.3
	c7.3-5.2,14.1-11,20.3-17.5C249.9,243.3,250,243.2,250,243.2z"/>
<path class="st0" d="M78.3,261.6v0.2c-7.4-5.2-14.3-11.1-20.5-17.7c0,0,0,0,0,0C64,250.5,70.8,256.4,78.3,261.6z"/>
</svg>
